<svg width="24" height="24" viewBox="0 0 24 24" fill="none" xmlns="http://www.w3.org/2000/svg">
<rect width="24" height="24" rx="12" fill="white"/>
<path d="M1.12842 15.0869V9.61572C1.12842 9.50146 1.16797 9.40332 1.24707 9.32129C1.32617 9.23926 1.42285 9.19824 1.53711 9.19824H2.8291C2.93164 9.19824 3.04004 9.23926 3.1543 9.32129C3.26855 9.40332 3.3623 9.50146 3.43555 9.61572L6.08984 13.6982V9.60693C6.08984 9.49268 6.12939 9.396 6.2085 9.31689C6.29053 9.23779 6.38867 9.19824 6.50293 9.19824H7.25879C7.37305 9.19824 7.46973 9.23779 7.54883 9.31689C7.63086 9.396 7.67188 9.49561 7.67188 9.61572V15.0869C7.67188 15.2012 7.63086 15.2993 7.54883 15.3813C7.46973 15.4604 7.37305 15.5 7.25879 15.5H5.7998C5.68555 15.5 5.56836 15.4604 5.44824 15.3813C5.32812 15.2993 5.23291 15.2012 5.1626 15.0869L2.73242 11.3164V15.0869C2.73242 15.2012 2.69141 15.2993 2.60938 15.3813C2.53027 15.4604 2.43359 15.5 2.31934 15.5H1.5459C1.43164 15.5 1.3335 15.4604 1.25146 15.3813C1.16943 15.2993 1.12842 15.2012 1.12842 15.0869ZM8.57275 13.8872C8.57275 13.7144 8.62402 13.5913 8.72656 13.5181C8.8291 13.4419 8.92871 13.4038 9.02539 13.4038H9.54834C9.81201 13.4038 10.0127 13.5474 10.1504 13.8345C10.2881 14.1216 10.5972 14.2651 11.0776 14.2651L12.6157 14.2959C13.1313 14.2959 13.3892 14.1274 13.3892 13.7905C13.3892 13.5356 13.0742 13.335 12.4443 13.1885C12.1631 13.1211 11.8525 13.0552 11.5127 12.9907C11.1729 12.9233 10.8345 12.8398 10.4976 12.7402C10.1636 12.6406 9.85596 12.5234 9.57471 12.3887C9.29346 12.2539 9.06494 12.0693 8.88916 11.835C8.71631 11.5977 8.62988 11.3193 8.62988 11C8.62988 10.4111 8.83936 9.9585 9.2583 9.64209C9.67725 9.32275 10.3979 9.16309 11.4204 9.16309L12.5366 9.18945C13.1372 9.18945 13.6777 9.34473 14.1582 9.65527C14.6416 9.96289 14.8833 10.3481 14.8833 10.811C14.8833 10.9839 14.832 11.1084 14.7295 11.1846C14.627 11.2607 14.5288 11.2988 14.4351 11.2988H13.9121C13.6484 11.2988 13.4478 11.1553 13.3101 10.8682C13.1724 10.5781 12.8633 10.4331 12.3828 10.4331L11.0601 10.4067C10.5444 10.4067 10.2866 10.5752 10.2866 10.9121C10.2866 11.0967 10.4492 11.2476 10.7744 11.3647C11.1025 11.4819 11.498 11.5859 11.9609 11.6768C12.4268 11.7646 12.894 11.8716 13.3628 11.9976C13.8315 12.1235 14.2285 12.3315 14.5537 12.6216C14.8818 12.9087 15.0459 13.2676 15.0459 13.6982C15.0459 14.2871 14.835 14.7412 14.4131 15.0605C13.9941 15.377 13.2749 15.5352 12.2554 15.5352L10.9238 15.5088C10.3232 15.5088 9.78125 15.355 9.29785 15.0474C8.81445 14.7368 8.57275 14.3501 8.57275 13.8872ZM15.8589 13.0083V9.61572C15.8589 9.50146 15.8984 9.40332 15.9775 9.32129C16.0596 9.23926 16.1606 9.19824 16.2808 9.19824H17.1025C17.2139 9.19824 17.3105 9.23926 17.3926 9.32129C17.4746 9.40332 17.5156 9.50146 17.5156 9.61572V13.0171C17.5156 13.4478 17.6094 13.7686 17.7969 13.9795C17.9873 14.1904 18.2803 14.2959 18.6758 14.2959H19.3789C19.7744 14.2959 20.0659 14.1904 20.2534 13.9795C20.4438 13.7686 20.5391 13.4478 20.5391 13.0171V9.61572C20.5391 9.50146 20.5786 9.40332 20.6577 9.32129C20.7397 9.23926 20.8379 9.19824 20.9521 9.19824H21.7695C21.8896 9.19824 21.9907 9.23926 22.0728 9.32129C22.1548 9.40332 22.1958 9.50146 22.1958 9.61572V13.0083C22.1958 13.811 21.96 14.4336 21.4883 14.876C21.0166 15.3154 20.3281 15.5352 19.4229 15.5352H18.6318C17.7236 15.5352 17.0337 15.3154 16.562 14.876C16.0933 14.4336 15.8589 13.811 15.8589 13.0083Z" fill="black"/>
</svg>
